<svg xmlns="http://www.w3.org/2000/svg" height="16" width="20" viewBox="0 0 640 512"><!--!Font Awesome Free 6.5.1 by @fontawesome - https://fontawesome.com License - https://fontawesome.com/license/free Copyright 2024 Fonticons, Inc.--><path opacity="1" fill="#1E3050" d="M624 448h-80V113.5C544 86.2 522.5 64 496 64H384v64h96v384h144c8.8 0 16-7.2 16-16v-32c0-8.8-7.2-16-16-16zM312.2 1l-192 49.7C106 54.4 96 67.7 96 82.9V448H16c-8.8 0-16 7.2-16 16v32c0 8.8 7.2 16 16 16h336V33.2c0-21.6-19.6-37.4-39.8-32.2zM264 288c-13.3 0-24-14.3-24-32s10.8-32 24-32 24 14.3 24 32-10.8 32-24 32z"/></svg>